Coordinates
version=1
nRows=5
nColumns=40
inDegrees=yes

Units are S.I. units (second, meters, Newtons, ...)
Angles are in degrees.

endheader
time	pelvis_tilt	pelvis_list	pelvis_rotation	pelvis_tx	pelvis_ty	pelvis_tz	hip_flexion_r	hip_adduction_r	hip_rotation_r	knee_angle_r	knee_angle_r_beta	ankle_angle_r	subtalar_angle_r	mtp_angle_r	hip_flexion_l	hip_adduction_l	hip_rotation_l	knee_angle_l	knee_angle_l_beta	ankle_angle_l	subtalar_angle_l	mtp_angle_l	lumbar_extension	lumbar_bending	lumbar_rotation	arm_flex_r	arm_add_r	arm_rot_r	elbow_flex_r	pro_sup_r	wrist_flex_r	wrist_dev_r	arm_flex_l	arm_add_l	arm_rot_l	elbow_flex_l	pro_sup_l	wrist_flex_l	wrist_dev_l
      7.71342857	     -3.30534745	     -5.76756687	      7.60576518	      1.01793862	      0.92535998	      0.48979879	      1.67548641	      3.30444089	    -18.92353863	     10.53063525	     10.53063525	     14.14196522	      3.62933825	     -7.14544062	     29.02386898	     -9.44569864	     -3.24394755	     18.41758043	     18.41758043	      1.95019903	     -3.91122464	      3.83598282	     -9.96747821	      6.79625174	      5.68400986	     37.90896883	    -16.45090810	     -3.04993054	     85.43501848	     44.31452455	      0.00000000	      0.00000000	    -10.36689135	     -6.52038260	     -2.24988454	     32.27789352	     45.50122523	      0.00000000	      0.00000000
      7.72685714	     -3.21378329	     -5.72787007	      7.44300738	      1.01909869	      0.92453228	      0.48763050	      1.16064430	      3.15717249	    -18.71731496	     10.66073229	     10.66073229	     14.54895451	      3.61817671	     -7.21545402	     28.51563890	     -9.29195001	     -3.22903870	     19.14309825	     19.14309825	      1.89516697	     -4.38679397	      3.67360769	     -9.85603602	      6.60034697	      5.75854599	     37.49191501	    -16.14876737	     -2.89914997	     85.37247326	     44.31516336	      0.00000000	      0.00000000	    -10.29060635	     -6.58244179	     -2.25570858	     32.29361154	     45.50444308	      0.00000000	      0.00000000
      7.74028571	     -3.11397998	     -5.66739328	      7.28331429	      1.02036588	      0.92374989	      0.48531501	      0.67284555	      2.96828127	    -18.45731729	     10.87402908	     10.87402908	     14.94213881	      3.51915452	     -7.24072650	     28.03464401	     -9.11007979	     -3.10018235	     19.89595623	     19.89595623	      1.97456681	     -4.94441569	      3.45910902	     -9.74883912	      6.37072901	      5.77046443	     36.92613910	    -15.85151698	     -2.71524978	     85.27075529	     44.31366484	      0.00000000	      0.00000000	    -10.16082739	     -6.68989026	     -2.27512317	     32.33249744	     45.50993375	      0.00000000	      0.00000000
      7.75371429	     -3.14159309	     -5.64494621	      7.17558465	      1.02137691	      0.92271750	      0.48280002	      0.60994481	      2.73858222	    -17.96620661	     11.61705470	     11.61705470	     15.59892904	      2.77999728	     -6.67781331	     27.83150268	     -8.80157832	     -2.35114049	     20.71091627	     20.71091627	      1.82995549	     -6.54778547	      2.97475263	     -9.52651263	      6.18647906	      5.74814048	     36.39575552	    -15.78076244	     -2.44234843	     85.19113526	     44.32365597	      0.00000000	      0.00000000	     -9.96343486	     -6.80975310	     -2.35011905	     32.45492879	     45.52765537	      0.00000000	      0.00000000
      7.76714286	     -3.01152652	     -5.48487562	      7.05590192	      1.02248289	      0.92213069	      0.48013463	      0.31142007	      2.37221824	    -17.56870326	     12.26599290	     12.26599290	     16.14223093	      2.25239644	     -6.18889457	     27.45133806	     -8.46078658	     -1.97883283	     21.49741719	     21.49741719	      1.97540263	     -7.59403146	      2.52118197	     -9.52057772	      5.87735709	      5.73287554	     35.72003456	    -15.73837104	     -2.18026963	     84.94266005	     44.33399805	      0.00000000	      0.00000000	     -9.69738466	     -7.01937742	     -2.44078177	     32.54894091	     45.54739291	      0.00000000	      0.00000000
